<?xml version="1.0" standalone="no"?>
<!DOCTYPE svg PUBLIC "-//W3C//DTD SVG 20010904//EN"
 "http://www.w3.org/TR/2001/REC-SVG-20010904/DTD/svg10.dtd">
<svg version="1.0" xmlns="http://www.w3.org/2000/svg"
 width="512.000000pt" height="512.000000pt" viewBox="0 0 512.000000 512.000000"
 preserveAspectRatio="xMidYMid meet" style="background-color: white;">
<title>웹 페이지 상단으로 가기</title>
<g transform="translate(0.000000,512.000000) scale(0.100000,-0.100000)"
fill="#000000" stroke="none">
<path d="M2370 5113 c-210 -20 -396 -55 -555 -104 -681 -211 -1238 -687 -1551
-1324 -126 -258 -203 -511 -246 -810 -17 -118 -17 -512 0 -630 42 -295 120
-553 242 -800 137 -280 272 -468 494 -691 221 -220 412 -357 681 -489 188 -92
309 -137 500 -185 196 -49 343 -70 545 -77 580 -20 1143 158 1615 511 138 103
379 339 477 466 496 644 663 1434 468 2210 -59 235 -182 525 -306 720 -211
333 -537 653 -856 843 -413 246 -871 371 -1338 365 -74 0 -151 -3 -170 -5z
m406 -244 c677 -66 1280 -416 1681 -977 312 -437 465 -1010 412 -1548 -108
-1110 -983 -1985 -2093 -2093 -452 -44 -918 53 -1326 275 -207 113 -343 215
-526 398 -229 230 -378 447 -497 728 -249 582 -247 1241 4 1825 121 283 287
521 518 745 329 320 718 525 1161 612 229 45 448 57 666 35z"/>
<path d="M2504 3737 c-27 -15 -613 -714 -625 -745 -40 -104 80 -204 173 -144
15 9 107 114 205 231 l178 215 5 -925 c5 -1003 2 -948 61 -983 52 -31 123 -16
156 33 17 24 18 89 23 950 l5 925 178 -215 c98 -117 190 -222 205 -231 56 -37
138 -13 167 48 20 43 19 73 -5 111 -31 52 -591 717 -614 730 -11 7 -37 12 -56
12 -19 0 -45 -5 -56 -12z"/>
</g>
</svg>
